<svg width="35" height="35" viewBox="0 0 35 35" fill="none" xmlns="http://www.w3.org/2000/svg">
<path fill-rule="evenodd" clip-rule="evenodd" d="M32.8125 17.5C32.8125 17.7901 32.6973 18.0683 32.4921 18.2734C32.287 18.4785 32.0088 18.5937 31.7187 18.5937L5.92156 18.5937L12.8056 25.4756C13.011 25.681 13.1264 25.9595 13.1264 26.25C13.1264 26.5404 13.011 26.819 12.8056 27.0244C12.6002 27.2297 12.3217 27.3451 12.0312 27.3451C11.7408 27.3451 11.4623 27.2297 11.2569 27.0244L2.50687 18.2744C2.40502 18.1728 2.3242 18.0521 2.26907 17.9192C2.21393 17.7863 2.18554 17.6438 2.18554 17.5C2.18554 17.3561 2.21393 17.2137 2.26907 17.0808C2.3242 16.9479 2.40502 16.8272 2.50687 16.7256L11.2569 7.9756C11.4623 7.77022 11.7408 7.65485 12.0312 7.65485C12.3217 7.65485 12.6002 7.77022 12.8056 7.9756C13.011 8.18098 13.1264 8.45953 13.1264 8.74998C13.1264 9.04042 13.011 9.31898 12.8056 9.52435L5.92156 16.4062L31.7187 16.4062C32.0088 16.4062 32.287 16.5215 32.4921 16.7266C32.6973 16.9317 32.8125 17.2099 32.8125 17.5Z" fill="black"/>
</svg>
