<svg width="38" height="45" viewBox="0 0 38 45" fill="none" xmlns="http://www.w3.org/2000/svg">
<g clip-path="url(#clip0_35_412)">
<path d="M38.1429 28.9825C38.1319 28.9635 38.1169 28.948 38.1049 28.93L38.1059 28.9295L24.6534 5.63L24.6459 5.634C24.5348 5.45685 24.373 5.31728 24.1814 5.2335L24.2004 5.2225L20.2074 2.9165L24.6429 10.599L34.7319 28.0735L34.7309 28.074C34.7429 28.092 34.7579 28.1075 34.7689 28.1265C34.9073 28.3666 34.9448 28.6517 34.8731 28.9194C34.8014 29.1871 34.6263 29.4153 34.3864 29.554L34.3934 29.5665L19.4629 38.1865L20.1094 39.306C20.1224 39.3335 20.1314 39.362 20.1469 39.389C20.2817 39.6216 20.5012 39.7931 20.7594 39.8677C21.0177 39.9424 21.2948 39.9143 21.5329 39.7895L21.5354 39.7935L37.7679 30.422L37.7609 30.4095C38.0007 30.2708 38.1756 30.0427 38.2473 29.7751C38.3189 29.5075 38.2813 29.2224 38.1429 28.9825Z" fill="#FF4A4A"/>
<path d="M30.9398 28.5715C31.1797 28.4329 31.3548 28.2046 31.4265 27.9369C31.4982 27.6693 31.4607 27.3841 31.3223 27.144C31.3113 27.125 31.2963 27.1095 31.2843 27.0915L31.2853 27.091L17.8328 3.79153L17.8253 3.79553C17.7142 3.61837 17.5524 3.4788 17.3608 3.39503L17.3798 3.38403L11.8748 0.205527V0.227526C11.7355 0.148114 11.5797 0.101967 11.4196 0.0926869C11.2595 0.0834066 11.0994 0.111243 10.9518 0.174026L10.9458 0.163526L10.8428 0.223026C10.8408 0.224526 10.8383 0.224526 10.8363 0.226026C10.8343 0.227526 10.8328 0.229026 10.8303 0.230026L0.238797 6.34503C0.0836198 6.43481 -0.0456832 6.56323 -0.13654 6.71778C-0.227398 6.87234 -0.276717 7.04777 -0.279703 7.22703L-0.283203 7.22503V13.582L-0.272703 13.576C-0.296203 13.7895 -0.257703 14.012 -0.142203 14.2125C-0.135203 14.2245 -0.126203 14.2335 -0.118703 14.245L13.2888 37.468C13.3018 37.4955 13.3108 37.524 13.3263 37.551C13.4611 37.7836 13.6806 37.9551 13.9388 38.0298C14.1971 38.1044 14.4742 38.0764 14.7123 37.9515L14.7148 37.9555L30.9473 28.584L30.9398 28.5715ZM8.7723 8.76103C8.44128 8.95215 8.06102 9.04081 7.67961 9.01581C7.2982 8.99081 6.93277 8.85326 6.62953 8.62057C6.3263 8.38787 6.09888 8.07047 5.97604 7.70852C5.85319 7.34657 5.84045 6.95632 5.93941 6.58712C6.03837 6.21792 6.24459 5.88636 6.532 5.63437C6.8194 5.38239 7.17508 5.22129 7.55404 5.17145C7.93301 5.12161 8.31825 5.18527 8.66103 5.35439C9.00381 5.5235 9.28875 5.79047 9.4798 6.12153C9.60683 6.34125 9.68929 6.58386 9.72248 6.83548C9.75567 7.0871 9.73893 7.3428 9.67322 7.58794C9.60751 7.83309 9.49412 8.06288 9.33953 8.26417C9.18495 8.46545 8.99219 8.63429 8.7723 8.76103Z" fill="#FF4A4A"/>
</g>
<defs>
<clipPath id="clip0_35_412">
<rect width="38" height="45" fill="white"/>
</clipPath>
</defs>
</svg>
