<svg width="25" height="26" viewBox="0 0 25 26" fill="none" xmlns="http://www.w3.org/2000/svg">
<path d="M12.5 7.66616C11.3669 7.66616 10.2592 8.00233 9.31705 8.63216C8.37489 9.26199 7.64057 10.1572 7.20694 11.2046C6.77331 12.2519 6.65986 13.4044 6.88092 14.5163C7.10198 15.6282 7.64763 16.6495 8.44887 17.4511C9.2501 18.2528 10.2709 18.7987 11.3823 19.0198C12.4936 19.241 13.6456 19.1275 14.6925 18.6937C15.7393 18.2598 16.6341 17.5252 17.2636 16.5825C17.8932 15.6399 18.2292 14.5317 18.2292 13.3981C18.2292 11.8779 17.6256 10.4199 16.5511 9.345C15.4767 8.27006 14.0195 7.66616 12.5 7.66616ZM12.5 18.0878C11.5729 18.0878 10.6666 17.8128 9.89576 17.2975C9.12491 16.7821 8.5241 16.0497 8.16931 15.1928C7.81453 14.3358 7.7217 13.3929 7.90257 12.4831C8.08344 11.5734 8.52988 10.7378 9.18544 10.0819C9.841 9.42605 10.6762 8.97939 11.5855 8.79844C12.4948 8.61749 13.4373 8.71036 14.2938 9.06531C15.1504 9.42027 15.8824 10.0214 16.3975 10.7926C16.9126 11.5638 17.1875 12.4705 17.1875 13.3981C17.1875 14.6419 16.6936 15.8347 15.8146 16.7142C14.9355 17.5937 13.7432 18.0878 12.5 18.0878ZM18.2292 0.89209H6.77083C4.9751 0.89209 3.25291 1.60578 1.98313 2.87617C0.713353 4.14656 0 5.86957 0 7.66616V19.13C0 20.0196 0.175133 20.9004 0.515399 21.7223C0.855665 22.5442 1.3544 23.2909 1.98313 23.92C3.25291 25.1904 4.9751 25.9041 6.77083 25.9041H18.2292C19.1183 25.9041 19.9988 25.7288 20.8203 25.3884C21.6417 25.048 22.3881 24.549 23.0169 23.92C23.6456 23.2909 24.1443 22.5442 24.4846 21.7223C24.8249 20.9004 25 20.0196 25 19.13V7.66616C25 6.77658 24.8249 5.89571 24.4846 5.07384C24.1443 4.25197 23.6456 3.5052 23.0169 2.87617C22.3881 2.24714 21.6417 1.74816 20.8203 1.40774C19.9988 1.06731 19.1183 0.89209 18.2292 0.89209ZM23.9583 19.13C23.9583 20.6502 23.3547 22.1081 22.2803 23.1831C21.2059 24.258 19.7486 24.8619 18.2292 24.8619H6.77083C5.25136 24.8619 3.79413 24.258 2.7197 23.1831C1.64527 22.1081 1.04167 20.6502 1.04167 19.13V7.66616C1.04167 6.14597 1.64527 4.68803 2.7197 3.61309C3.79413 2.53815 5.25136 1.93426 6.77083 1.93426H18.2292C19.7486 1.93426 21.2059 2.53815 22.2803 3.61309C23.3547 4.68803 23.9583 6.14597 23.9583 7.66616V19.13ZM20.3125 6.624C20.3125 6.83012 20.2514 7.03161 20.1369 7.20299C20.0225 7.37438 19.8598 7.50795 19.6695 7.58683C19.4791 7.66571 19.2697 7.68635 19.0676 7.64614C18.8655 7.60593 18.6799 7.50667 18.5343 7.36092C18.3886 7.21517 18.2894 7.02947 18.2492 6.82731C18.209 6.62515 18.2296 6.41561 18.3085 6.22518C18.3873 6.03475 18.5208 5.87198 18.6921 5.75747C18.8634 5.64296 19.0648 5.58183 19.2708 5.58183C19.5471 5.58183 19.8121 5.69163 20.0074 5.88708C20.2028 6.08252 20.3125 6.3476 20.3125 6.624Z" fill="black"/>
</svg>
