<svg width="36" height="36" viewBox="0 0 36 36" fill="none" xmlns="http://www.w3.org/2000/svg">
<path d="M4.80946 13.5C4.43135 13.4996 4.06842 13.6487 3.79974 13.9147C3.53106 14.1808 3.37843 14.5422 3.37509 14.9203C3.37355 15.0514 3.39253 15.1818 3.43134 15.307L7.06649 28.125C7.23498 28.7237 7.59505 29.2508 8.09157 29.6254C8.5881 30 9.19372 30.2016 9.81571 30.1992H26.1845C26.8077 30.1998 27.4141 29.9978 27.9125 29.6236C28.4109 29.2495 28.7743 28.7236 28.9477 28.125L32.5829 15.307L32.6251 14.9203C32.6217 14.5422 32.4691 14.1808 32.2004 13.9147C31.9318 13.6487 31.5688 13.4996 31.1907 13.5H4.80946ZM18.4023 24.7549C17.8179 24.752 17.2474 24.576 16.7629 24.2492C16.2784 23.9224 15.9016 23.4594 15.6799 22.9187C15.4583 22.3779 15.4018 21.7836 15.5176 21.2108C15.6334 20.638 15.9163 20.1123 16.3306 19.7001C16.7449 19.2878 17.272 19.0076 17.8454 18.8946C18.4188 18.7817 19.0128 18.8411 19.5524 19.0654C20.0921 19.2898 20.5532 19.6689 20.8776 20.155C21.202 20.6411 21.3751 21.2125 21.3751 21.7969C21.3714 22.5828 21.0565 23.3353 20.4994 23.8896C19.9422 24.444 19.1882 24.7551 18.4023 24.7549V24.7549Z" stroke="black" stroke-width="2" stroke-linejoin="round"/>
<path d="M11.25 13.5L18 4.5L24.75 13.5" stroke="black" stroke-width="2" stroke-linejoin="round"/>
</svg>
