<svg width="193" height="28" viewBox="0 0 193 28" fill="none" xmlns="http://www.w3.org/2000/svg">
<path d="M178.241 10.6945C178.241 8.06944 180.369 5.94141 182.994 5.94141H184.182C186.807 5.94141 188.935 8.06944 188.935 10.6945H178.241Z" fill="#4770FF"/>
<rect x="176.458" y="10.6943" width="14.2593" height="4.75309" fill="white"/>
<path d="M177.8 15.3999H189C189 17.7195 187.119 19.5999 184.8 19.5999H182C179.68 19.5999 177.8 17.7195 177.8 15.3999Z" fill="#FF4A4A"/>
<path d="M7.48611 20.2495C6.82068 20.2495 6.19684 20.1497 5.61458 19.9501C5.04897 19.7338 4.54989 19.4427 4.11736 19.0767C3.68483 18.6941 3.33548 18.2532 3.06931 17.7542H3.3937V20H1.77171V15.2588H3.26894C3.33548 15.9409 3.54343 16.5481 3.89278 17.0804C4.24213 17.6128 4.71625 18.037 5.31514 18.3531C5.91403 18.6525 6.61273 18.8022 7.41125 18.8022C8.27631 18.8022 8.95006 18.6026 9.4325 18.2033C9.91494 17.7874 10.1562 17.1969 10.1562 16.4316C10.1562 15.8161 10.048 15.342 9.83176 15.0093C9.61549 14.6599 9.25782 14.3937 8.75875 14.2107C8.25968 14.0111 7.59424 13.8448 6.76245 13.7117L6.16356 13.6119C4.81606 13.379 3.73474 12.9381 2.91958 12.2893C2.10443 11.6239 1.69685 10.7006 1.69685 9.51944C1.69685 8.68765 1.87985 7.98895 2.24583 7.42333C2.61182 6.85772 3.12753 6.42518 3.79296 6.12574C4.4584 5.8263 5.23196 5.67657 6.11366 5.67657C7.09517 5.67657 7.96023 5.89284 8.70884 6.32537C9.45745 6.7579 9.96485 7.34847 10.231 8.09708H9.70699V5.95106H11.304V9.9187H9.83176C9.76522 9.51944 9.62381 9.10355 9.40755 8.67102C9.19128 8.23849 8.83361 7.8725 8.33454 7.57306C7.83546 7.27361 7.12844 7.12389 6.21347 7.12389C5.34841 7.12389 4.68298 7.33184 4.21718 7.74773C3.75137 8.14699 3.51847 8.67102 3.51847 9.31981C3.51847 10.0352 3.77633 10.5841 4.29204 10.9668C4.80775 11.3494 5.55636 11.6322 6.53787 11.8152L7.11181 11.915C8.20977 12.098 9.11642 12.3475 9.83176 12.6636C10.5471 12.9797 11.0794 13.4122 11.4288 13.9612C11.7948 14.5102 11.9778 15.2338 11.9778 16.1322C11.9778 16.8642 11.8031 17.5462 11.4538 18.1784C11.1044 18.7939 10.597 19.293 9.93157 19.6756C9.26614 20.0582 8.45099 20.2495 7.48611 20.2495ZM13.736 20V18.6775H15.5327L19.6002 7.27361H18.0281V5.95106H24.8903V7.27361H23.2684L27.4606 18.6775H29.1574V20H23.443V18.6775H25.3146L23.8922 14.585H18.8016L17.4042 18.6775H19.2758V20H13.736ZM19.2009 13.2625H23.4929L21.4467 7.29857H21.297L19.2009 13.2625ZM30.8993 20V18.6775H32.8956V7.27361H30.8993V5.95106H35.2413L43.2763 17.305V7.27361H41.2801V5.95106H46.7948V7.27361H44.8484V20H42.8272L34.4427 8.04718V18.6775H36.439V20H30.8993ZM51.4887 20V18.6775H53.435V7.27361H49.5922V10.842H48.07V5.95106H60.7465V10.842H59.2243V7.27361H55.4563V18.6775H57.4027V20H51.4887ZM62.6328 20V18.6775H64.5792V7.27361H62.6328V5.95106H68.5968V7.27361H66.6254V18.6775H68.5968V20H62.6328ZM78.4174 20V18.6775H80.3638V7.27361H78.4174V5.95106H84.3564V7.27361H82.41V18.6775H88.2492V14.3605H89.8961V20H78.4174ZM99.3883 20.2745C98.2404 20.2745 97.1923 20.0832 96.2441 19.7006C95.3125 19.3179 94.514 18.7939 93.8485 18.1285C93.1831 17.4464 92.6674 16.6728 92.3014 15.8078C91.9521 14.9261 91.7774 13.9945 91.7774 13.013C91.7774 12.0315 91.9521 11.0998 92.3014 10.2181C92.6674 9.33645 93.1831 8.56289 93.8485 7.89745C94.514 7.21539 95.3125 6.68304 96.2441 6.30042C97.1923 5.90116 98.2404 5.70153 99.3883 5.70153C100.536 5.70153 101.576 5.90116 102.507 6.30042C103.456 6.68304 104.263 7.21539 104.928 7.89745C105.593 8.56289 106.101 9.33645 106.45 10.2181C106.816 11.0998 106.999 12.0315 106.999 13.013C106.999 13.9945 106.816 14.9261 106.45 15.8078C106.101 16.6728 105.593 17.4464 104.928 18.1285C104.263 18.7939 103.464 19.3179 102.532 19.7006C101.601 20.0832 100.553 20.2745 99.3883 20.2745ZM99.3883 18.7773C100.237 18.7773 100.994 18.6275 101.659 18.3281C102.341 18.0287 102.915 17.6128 103.381 17.0804C103.863 16.5481 104.221 15.9409 104.454 15.2588C104.703 14.5601 104.828 13.8115 104.828 13.013C104.828 12.2144 104.703 11.4658 104.454 10.7671C104.221 10.0518 103.863 9.42795 103.381 8.8956C102.915 8.36326 102.341 7.94736 101.659 7.64792C100.994 7.33184 100.237 7.1738 99.3883 7.1738C98.5232 7.1738 97.758 7.33184 97.0925 7.64792C96.4271 7.94736 95.8615 8.37157 95.3957 8.92056C94.9299 9.4529 94.5722 10.0767 94.3227 10.7921C94.0898 11.4908 93.9733 12.2394 93.9733 13.0379C93.9733 13.8364 94.0898 14.585 94.3227 15.2837C94.5722 15.9658 94.9299 16.573 95.3957 17.1054C95.8615 17.6377 96.4271 18.0536 97.0925 18.3531C97.758 18.6359 98.5232 18.7773 99.3883 18.7773ZM109.22 20V18.6775H111.166V7.27361H109.22V5.95106H116.606C117.587 5.95106 118.436 6.09247 119.151 6.37528C119.867 6.64145 120.416 7.04903 120.798 7.59801C121.181 8.13035 121.372 8.8041 121.372 9.61926C121.372 10.2681 121.247 10.8503 120.998 11.366C120.765 11.8817 120.382 12.3143 119.85 12.6636C119.318 12.9963 118.619 13.2292 117.754 13.3623L120.973 18.6775H123.044V20H119.575L115.807 13.5619H114.086V12.1895H116.282C117.097 12.1895 117.721 12.0647 118.153 11.8152C118.602 11.549 118.91 11.2246 119.076 10.842C119.259 10.4427 119.351 10.0435 119.351 9.64421C119.351 9.21168 119.251 8.82074 119.051 8.47139C118.868 8.1054 118.577 7.81427 118.178 7.59801C117.779 7.38174 117.263 7.27361 116.631 7.27361H113.212V18.6775H115.159V20H109.22ZM124.395 20V18.6775H126.192L130.259 7.27361H128.687V5.95106H135.549V7.27361H133.927L138.12 18.6775H139.816V20H134.102V18.6775H135.974L134.551 14.585H129.461L128.063 18.6775H129.935V20H124.395ZM129.86 13.2625H134.152L132.106 7.29857H131.956L129.86 13.2625ZM141.558 20V18.6775H143.555V7.27361H141.558V5.95106H145.9L153.935 17.305V7.27361H151.939V5.95106H157.454V7.27361H155.507V20H153.486L145.102 8.04718V18.6775H147.098V20H141.558ZM166.689 20.2745C165.591 20.2745 164.593 20.0998 163.695 19.7505C162.796 19.3845 162.015 18.8771 161.349 18.2283C160.7 17.5795 160.201 16.8142 159.852 15.9325C159.503 15.0342 159.328 14.0444 159.328 12.9631C159.328 11.5656 159.627 10.318 160.226 9.22C160.842 8.12204 161.698 7.26529 162.796 6.64977C163.911 6.01761 165.217 5.70153 166.714 5.70153C167.612 5.70153 168.419 5.84293 169.135 6.12574C169.867 6.39191 170.474 6.77454 170.956 7.27361C171.455 7.77268 171.813 8.34662 172.029 8.99542H171.48V5.95106H172.978V10.1932L171.63 10.2431C171.114 9.16177 170.457 8.38821 169.659 7.92241C168.877 7.43997 167.929 7.19875 166.814 7.19875C165.699 7.19875 164.734 7.4566 163.919 7.97231C163.104 8.47139 162.472 9.15346 162.023 10.0185C161.59 10.8836 161.374 11.8568 161.374 12.9381C161.374 13.8198 161.507 14.6183 161.773 15.3337C162.056 16.049 162.439 16.6645 162.921 17.1802C163.42 17.6959 163.994 18.0952 164.643 18.378C165.308 18.6442 166.032 18.7773 166.814 18.7773C167.513 18.7773 168.186 18.6691 168.835 18.4529C169.484 18.2366 170.066 17.8873 170.582 17.4048C171.098 16.9057 171.497 16.2569 171.78 15.4584L173.277 16.207C172.878 17.2218 172.345 18.0287 171.68 18.6275C171.014 19.2098 170.249 19.6257 169.384 19.8752C168.536 20.1248 167.637 20.2579 166.689 20.2745ZM183.534 20.2745C182.386 20.2745 181.338 20.0832 180.39 19.7006C179.458 19.3179 178.66 18.7939 177.994 18.1285C177.329 17.4464 176.813 16.6728 176.447 15.8078C176.098 14.9261 175.923 13.9945 175.923 13.013C175.923 12.0315 176.098 11.0998 176.447 10.2181C176.813 9.33645 177.329 8.56289 177.994 7.89745C178.66 7.21539 179.458 6.68304 180.39 6.30042C181.338 5.90116 182.386 5.70153 183.534 5.70153C184.682 5.70153 185.722 5.90116 186.653 6.30042C187.601 6.68304 188.408 7.21539 189.074 7.89745C189.739 8.56289 190.246 9.33645 190.596 10.2181C190.962 11.0998 191.145 12.0315 191.145 13.013C191.145 13.9945 190.962 14.9261 190.596 15.8078C190.246 16.6728 189.739 17.4464 189.074 18.1285C188.408 18.7939 187.61 19.3179 186.678 19.7006C185.746 20.0832 184.698 20.2745 183.534 20.2745ZM183.534 18.7773C184.382 18.7773 185.139 18.6275 185.805 18.3281C186.487 18.0287 187.061 17.6128 187.526 17.0804C188.009 16.5481 188.367 15.9409 188.6 15.2588C188.849 14.5601 188.974 13.8115 188.974 13.013C188.974 12.2144 188.849 11.4658 188.6 10.7671C188.367 10.0518 188.009 9.42795 187.526 8.8956C187.061 8.36326 186.487 7.94736 185.805 7.64792C185.139 7.33184 184.382 7.1738 183.534 7.1738C182.669 7.1738 181.904 7.33184 181.238 7.64792C180.573 7.94736 180.007 8.37157 179.541 8.92056C179.076 9.4529 178.718 10.0767 178.468 10.7921C178.235 11.4908 178.119 12.2394 178.119 13.0379C178.119 13.8364 178.235 14.585 178.468 15.2837C178.718 15.9658 179.076 16.573 179.541 17.1054C180.007 17.6377 180.573 18.0536 181.238 18.3531C181.904 18.6359 182.669 18.7773 183.534 18.7773Z" fill="black"/>
</svg>
