<svg width="25" height="26" viewBox="0 0 25 26" fill="none" xmlns="http://www.w3.org/2000/svg">
<g clip-path="url(#clip0_9_329)">
<path d="M6.60778 21.6625L7.01647 21.8669C8.7196 22.8887 10.6269 23.3655 12.5343 23.3655C18.529 23.3655 23.4337 18.4608 23.4337 12.4662C23.4337 9.60517 22.2756 6.81221 20.232 4.76855C18.1883 2.7249 15.4634 1.56689 12.5343 1.56689C6.53972 1.56689 1.63493 6.47158 1.70309 12.5344C1.70309 14.5779 2.31618 16.5535 3.33796 18.2564L3.61042 18.6652L2.52058 22.6844L6.60778 21.6625Z" fill="#00E676"/>
<path d="M21.3899 3.67852C19.0738 1.29434 15.8722 0 12.6023 0C5.6541 0 0.0681641 5.654 0.13623 12.5342C0.13623 14.7141 0.749316 16.8259 1.77119 18.7332L0 25.2047L6.60772 23.5017C8.44697 24.5235 10.4905 25.0004 12.5343 25.0004C19.4145 25.0004 25.0004 19.3463 25.0004 12.4662C25.0004 9.12822 23.7061 5.99463 21.39 3.67852H21.3899ZM12.6023 22.8887C10.7631 22.8887 8.92383 22.4119 7.35703 21.4582L6.94834 21.2538L2.99736 22.2756L4.01914 18.3928L3.74668 17.984C0.749316 13.1475 2.17988 6.74395 7.08457 3.74658C11.9893 0.749317 18.3245 2.17988 21.3219 7.08457C24.3191 11.9893 22.8886 18.3245 17.984 21.3219C16.4171 22.3437 14.5098 22.8886 12.6023 22.8886V22.8887ZM18.597 15.3273L17.8477 14.9867C17.8477 14.9867 16.7578 14.5099 16.0766 14.1692C16.0084 14.1692 15.9403 14.1011 15.8722 14.1011C15.6678 14.1011 15.5315 14.1692 15.3953 14.2374C15.3953 14.2374 15.3272 14.3055 14.3735 15.3954C14.3054 15.5316 14.1691 15.5998 14.0329 15.5998H13.9647C13.8967 15.5998 13.7604 15.5316 13.6923 15.4636L13.3517 15.3273C12.6023 14.9867 11.9212 14.5779 11.3762 14.033C11.2399 13.8968 11.0355 13.7605 10.8993 13.6243C10.4225 13.1475 9.94561 12.6024 9.60508 11.9894L9.53691 11.8531C9.46885 11.785 9.46885 11.7169 9.40068 11.5807C9.40068 11.4444 9.40068 11.3082 9.46885 11.24C9.46885 11.24 9.74131 10.8994 9.94561 10.6951C10.0819 10.5588 10.15 10.3545 10.2862 10.2183C10.4225 10.0139 10.4906 9.74141 10.4225 9.53701C10.3544 9.19639 9.53691 7.35713 9.33262 6.94844C9.19629 6.74404 9.06016 6.67598 8.85576 6.60781H8.10645C7.97012 6.60781 7.83398 6.67598 7.69766 6.67598L7.62949 6.74404C7.49326 6.81221 7.35703 6.94844 7.2208 7.0165C7.08457 7.15283 7.01641 7.28896 6.88018 7.42529C6.40332 8.03838 6.13086 8.78769 6.13086 9.53701C6.13086 10.0819 6.26709 10.627 6.47148 11.1038L6.53965 11.3082C7.15273 12.6024 7.97012 13.7605 9.06016 14.7823L9.33262 15.0548C9.53691 15.2592 9.74131 15.3954 9.87754 15.5997C11.3081 16.826 12.943 17.7115 14.7822 18.1884C14.9866 18.2564 15.2591 18.2564 15.4635 18.3246H16.1446C16.4853 18.3246 16.8939 18.1884 17.1665 18.0521C17.3708 17.9159 17.507 17.9159 17.6433 17.7797L17.7796 17.6434C17.9158 17.5071 18.0521 17.4391 18.1883 17.3028C18.3245 17.1666 18.4607 17.0304 18.5289 16.894C18.6651 16.6216 18.7332 16.281 18.8014 15.9404V15.4636C18.8014 15.4636 18.7332 15.3954 18.597 15.3273Z" fill="white"/>
</g>
<defs>
<clipPath id="clip0_9_329">
<rect width="25" height="25.293" fill="white"/>
</clipPath>
</defs>
</svg>
