<svg width="324" height="48" viewBox="0 0 324 48" fill="none" xmlns="http://www.w3.org/2000/svg">
<path d="M300 18C300 13.5817 303.582 10 308 10H310C314.418 10 318 13.5817 318 18H300Z" fill="#4770FF"/>
<rect x="297" y="18" width="24" height="8" fill="white"/>
<path d="M299 26H319C319 30.4183 315.418 34 311 34H307C302.582 34 299 30.4183 299 26Z" fill="#FF4A4A"/>
<path d="M12.6 34.42C11.48 34.42 10.43 34.252 9.45 33.916C8.498 33.552 7.658 33.062 6.93 32.446C6.202 31.802 5.614 31.06 5.166 30.22H5.712V34H2.982V26.02H5.502C5.614 27.168 5.964 28.19 6.552 29.086C7.14 29.982 7.938 30.696 8.946 31.228C9.954 31.732 11.13 31.984 12.474 31.984C13.93 31.984 15.064 31.648 15.876 30.976C16.688 30.276 17.094 29.282 17.094 27.994C17.094 26.958 16.912 26.16 16.548 25.6C16.184 25.012 15.582 24.564 14.742 24.256C13.902 23.92 12.782 23.64 11.382 23.416L10.374 23.248C8.106 22.856 6.286 22.114 4.914 21.022C3.542 19.902 2.856 18.348 2.856 16.36C2.856 14.96 3.164 13.784 3.78 12.832C4.396 11.88 5.264 11.152 6.384 10.648C7.504 10.144 8.806 9.892 10.29 9.892C11.942 9.892 13.398 10.256 14.658 10.984C15.918 11.712 16.772 12.706 17.22 13.966H16.338V10.354H19.026V17.032H16.548C16.436 16.36 16.198 15.66 15.834 14.932C15.47 14.204 14.868 13.588 14.028 13.084C13.188 12.58 11.998 12.328 10.458 12.328C9.002 12.328 7.882 12.678 7.098 13.378C6.314 14.05 5.922 14.932 5.922 16.024C5.922 17.228 6.356 18.152 7.224 18.796C8.092 19.44 9.352 19.916 11.004 20.224L11.97 20.392C13.818 20.7 15.344 21.12 16.548 21.652C17.752 22.184 18.648 22.912 19.236 23.836C19.852 24.76 20.16 25.978 20.16 27.49C20.16 28.722 19.866 29.87 19.278 30.934C18.69 31.97 17.836 32.81 16.716 33.454C15.596 34.098 14.224 34.42 12.6 34.42ZM23.1194 34V31.774H26.1434L32.9894 12.58H30.3434V10.354H41.8934V12.58H39.1634L46.2194 31.774H49.0754V34H39.4574V31.774H42.6074L40.2134 24.886H31.6454L29.2934 31.774H32.4434V34H23.1194ZM32.3174 22.66H39.5414L36.0974 12.622H35.8454L32.3174 22.66ZM52.0072 34V31.774H55.3672V12.58H52.0072V10.354H59.3152L72.8392 29.464V12.58H69.4792V10.354H78.7612V12.58H75.4852V34H72.0832L57.9712 13.882V31.774H61.3312V34H52.0072ZM86.6614 34V31.774H89.9374V12.58H83.4694V18.586H80.9074V10.354H102.243V18.586H99.6814V12.58H93.3394V31.774H96.6154V34H86.6614ZM105.418 34V31.774H108.694V12.58H105.418V10.354H115.456V12.58H112.138V31.774H115.456V34H105.418ZM131.986 34V31.774H135.262V12.58H131.986V10.354H141.982V12.58H138.706V31.774H148.534V24.508H151.306V34H131.986ZM167.282 34.462C165.35 34.462 163.586 34.14 161.99 33.496C160.422 32.852 159.078 31.97 157.958 30.85C156.838 29.702 155.97 28.4 155.354 26.944C154.766 25.46 154.472 23.892 154.472 22.24C154.472 20.588 154.766 19.02 155.354 17.536C155.97 16.052 156.838 14.75 157.958 13.63C159.078 12.482 160.422 11.586 161.99 10.942C163.586 10.27 165.35 9.934 167.282 9.934C169.214 9.934 170.964 10.27 172.532 10.942C174.128 11.586 175.486 12.482 176.606 13.63C177.726 14.75 178.58 16.052 179.168 17.536C179.784 19.02 180.092 20.588 180.092 22.24C180.092 23.892 179.784 25.46 179.168 26.944C178.58 28.4 177.726 29.702 176.606 30.85C175.486 31.97 174.142 32.852 172.574 33.496C171.006 34.14 169.242 34.462 167.282 34.462ZM167.282 31.942C168.71 31.942 169.984 31.69 171.104 31.186C172.252 30.682 173.218 29.982 174.002 29.086C174.814 28.19 175.416 27.168 175.808 26.02C176.228 24.844 176.438 23.584 176.438 22.24C176.438 20.896 176.228 19.636 175.808 18.46C175.416 17.256 174.814 16.206 174.002 15.31C173.218 14.414 172.252 13.714 171.104 13.21C169.984 12.678 168.71 12.412 167.282 12.412C165.826 12.412 164.538 12.678 163.418 13.21C162.298 13.714 161.346 14.428 160.562 15.352C159.778 16.248 159.176 17.298 158.756 18.502C158.364 19.678 158.168 20.938 158.168 22.282C158.168 23.626 158.364 24.886 158.756 26.062C159.176 27.21 159.778 28.232 160.562 29.128C161.346 30.024 162.298 30.724 163.418 31.228C164.538 31.704 165.826 31.942 167.282 31.942ZM183.829 34V31.774H187.105V12.58H183.829V10.354H196.261C197.913 10.354 199.341 10.592 200.545 11.068C201.749 11.516 202.673 12.202 203.317 13.126C203.961 14.022 204.283 15.156 204.283 16.528C204.283 17.62 204.073 18.6 203.653 19.468C203.261 20.336 202.617 21.064 201.721 21.652C200.825 22.212 199.649 22.604 198.193 22.828L203.611 31.774H207.097V34H201.259L194.917 23.164H192.019V20.854H195.715C197.087 20.854 198.137 20.644 198.865 20.224C199.621 19.776 200.139 19.23 200.419 18.586C200.727 17.914 200.881 17.242 200.881 16.57C200.881 15.842 200.713 15.184 200.377 14.596C200.069 13.98 199.579 13.49 198.907 13.126C198.235 12.762 197.367 12.58 196.303 12.58H190.549V31.774H193.825V34H183.829ZM209.371 34V31.774H212.395L219.241 12.58H216.595V10.354H228.145V12.58H225.415L232.471 31.774H235.327V34H225.709V31.774H228.859L226.465 24.886H217.897L215.545 31.774H218.695V34H209.371ZM218.569 22.66H225.793L222.349 12.622H222.097L218.569 22.66ZM238.259 34V31.774H241.619V12.58H238.259V10.354H245.567L259.091 29.464V12.58H255.731V10.354H265.013V12.58H261.737V34H258.335L244.223 13.882V31.774H247.583V34H238.259ZM280.557 34.462C278.709 34.462 277.029 34.168 275.517 33.58C274.005 32.964 272.689 32.11 271.569 31.018C270.477 29.926 269.637 28.638 269.049 27.154C268.461 25.642 268.167 23.976 268.167 22.156C268.167 19.804 268.671 17.704 269.679 15.856C270.715 14.008 272.157 12.566 274.005 11.53C275.881 10.466 278.079 9.934 280.599 9.934C282.111 9.934 283.469 10.172 284.673 10.648C285.905 11.096 286.927 11.74 287.739 12.58C288.579 13.42 289.181 14.386 289.545 15.478H288.621V10.354H291.141V17.494L288.873 17.578C288.005 15.758 286.899 14.456 285.555 13.672C284.239 12.86 282.643 12.454 280.767 12.454C278.891 12.454 277.267 12.888 275.895 13.756C274.523 14.596 273.459 15.744 272.703 17.2C271.975 18.656 271.611 20.294 271.611 22.114C271.611 23.598 271.835 24.942 272.283 26.146C272.759 27.35 273.403 28.386 274.215 29.254C275.055 30.122 276.021 30.794 277.113 31.27C278.233 31.718 279.451 31.942 280.767 31.942C281.943 31.942 283.077 31.76 284.169 31.396C285.261 31.032 286.241 30.444 287.109 29.632C287.977 28.792 288.649 27.7 289.125 26.356L291.645 27.616C290.973 29.324 290.077 30.682 288.957 31.69C287.837 32.67 286.549 33.37 285.093 33.79C283.665 34.21 282.153 34.434 280.557 34.462ZM308.909 34.462C306.977 34.462 305.213 34.14 303.617 33.496C302.049 32.852 300.705 31.97 299.585 30.85C298.465 29.702 297.597 28.4 296.981 26.944C296.393 25.46 296.099 23.892 296.099 22.24C296.099 20.588 296.393 19.02 296.981 17.536C297.597 16.052 298.465 14.75 299.585 13.63C300.705 12.482 302.049 11.586 303.617 10.942C305.213 10.27 306.977 9.934 308.909 9.934C310.841 9.934 312.591 10.27 314.159 10.942C315.755 11.586 317.113 12.482 318.233 13.63C319.353 14.75 320.207 16.052 320.795 17.536C321.411 19.02 321.719 20.588 321.719 22.24C321.719 23.892 321.411 25.46 320.795 26.944C320.207 28.4 319.353 29.702 318.233 30.85C317.113 31.97 315.769 32.852 314.201 33.496C312.633 34.14 310.869 34.462 308.909 34.462ZM308.909 31.942C310.337 31.942 311.611 31.69 312.731 31.186C313.879 30.682 314.845 29.982 315.629 29.086C316.441 28.19 317.043 27.168 317.435 26.02C317.855 24.844 318.065 23.584 318.065 22.24C318.065 20.896 317.855 19.636 317.435 18.46C317.043 17.256 316.441 16.206 315.629 15.31C314.845 14.414 313.879 13.714 312.731 13.21C311.611 12.678 310.337 12.412 308.909 12.412C307.453 12.412 306.165 12.678 305.045 13.21C303.925 13.714 302.973 14.428 302.189 15.352C301.405 16.248 300.803 17.298 300.383 18.502C299.991 19.678 299.795 20.938 299.795 22.282C299.795 23.626 299.991 24.886 300.383 26.062C300.803 27.21 301.405 28.232 302.189 29.128C302.973 30.024 303.925 30.724 305.045 31.228C306.165 31.704 307.453 31.942 308.909 31.942Z" fill="black"/>
</svg>
