<svg width="50" height="34" viewBox="0 0 50 34" fill="none" xmlns="http://www.w3.org/2000/svg">
<path d="M6.24967 0.333313C5.14461 0.333313 4.0848 0.7723 3.3034 1.5537C2.52199 2.3351 2.08301 3.39491 2.08301 4.49998V27.4166H6.24967C6.24967 29.0742 6.90815 30.664 8.08026 31.8361C9.25236 33.0082 10.8421 33.6666 12.4997 33.6666C14.1573 33.6666 15.747 33.0082 16.9191 31.8361C18.0912 30.664 18.7497 29.0742 18.7497 27.4166H31.2497C31.2497 29.0742 31.9082 30.664 33.0803 31.8361C34.2524 33.0082 35.8421 33.6666 37.4997 33.6666C39.1573 33.6666 40.747 33.0082 41.9191 31.8361C43.0912 30.664 43.7497 29.0742 43.7497 27.4166H47.9163V17L41.6663 8.66665H35.4163V0.333313H6.24967ZM20.833 4.49998L29.1663 12.8333L20.833 21.1666V14.9166H8.33301V10.75H20.833V4.49998ZM35.4163 11.7916H40.6247L44.7288 17H35.4163V11.7916ZM12.4997 24.2916C13.3285 24.2916 14.1233 24.6209 14.7094 25.2069C15.2954 25.793 15.6247 26.5878 15.6247 27.4166C15.6247 28.2454 15.2954 29.0403 14.7094 29.6263C14.1233 30.2124 13.3285 30.5416 12.4997 30.5416C11.6709 30.5416 10.876 30.2124 10.29 29.6263C9.70391 29.0403 9.37467 28.2454 9.37467 27.4166C9.37467 26.5878 9.70391 25.793 10.29 25.2069C10.876 24.6209 11.6709 24.2916 12.4997 24.2916ZM37.4997 24.2916C38.3285 24.2916 39.1233 24.6209 39.7094 25.2069C40.2954 25.793 40.6247 26.5878 40.6247 27.4166C40.6247 28.2454 40.2954 29.0403 39.7094 29.6263C39.1233 30.2124 38.3285 30.5416 37.4997 30.5416C36.6709 30.5416 35.876 30.2124 35.29 29.6263C34.7039 29.0403 34.3747 28.2454 34.3747 27.4166C34.3747 26.5878 34.7039 25.793 35.29 25.2069C35.876 24.6209 36.6709 24.2916 37.4997 24.2916Z" fill="#FF4A4A"/>
</svg>
