<svg width="36" height="36" viewBox="0 0 36 36" fill="none" xmlns="http://www.w3.org/2000/svg">
<path d="M3.79974 13.9147C4.06842 13.6487 4.43135 13.4996 4.80946 13.5H31.1907C31.5688 13.4996 31.9318 13.6487 32.2004 13.9147C32.4691 14.1808 32.6217 14.5422 32.6251 14.9203L32.5829 15.307L28.9477 28.125C28.7743 28.7236 28.4109 29.2495 27.9125 29.6236C27.4141 29.9978 26.8077 30.1998 26.1845 30.1992H9.81571C9.19372 30.2016 8.5881 30 8.09157 29.6254C7.59505 29.2508 7.23498 28.7237 7.06649 28.125L3.43134 15.307C3.39253 15.1818 3.37355 15.0514 3.37509 14.9203C3.37843 14.5422 3.53106 14.1808 3.79974 13.9147Z" stroke="#4770FF" stroke-width="2" stroke-linejoin="round"/>
<path d="M11.25 13.5L18 4.5L24.75 13.5" stroke="#4770FF" stroke-width="2" stroke-linejoin="round"/>
<path d="M16.6729 21.4014H17.5752C18.0173 21.4014 18.3818 21.3285 18.6689 21.1826C18.9606 21.0322 19.1771 20.8294 19.3184 20.5742C19.4642 20.3145 19.5371 20.0228 19.5371 19.6992C19.5371 19.3164 19.4733 18.9951 19.3457 18.7354C19.2181 18.4756 19.0267 18.2796 18.7715 18.1475C18.5163 18.0153 18.1927 17.9492 17.8008 17.9492C17.4453 17.9492 17.1309 18.0199 16.8574 18.1611C16.5885 18.2979 16.3766 18.4938 16.2217 18.749C16.0713 19.0042 15.9961 19.305 15.9961 19.6514H14.7314C14.7314 19.1455 14.859 18.6852 15.1143 18.2705C15.3695 17.8558 15.7272 17.5254 16.1875 17.2793C16.6523 17.0332 17.1901 16.9102 17.8008 16.9102C18.4023 16.9102 18.9287 17.0173 19.3799 17.2314C19.8311 17.4411 20.182 17.7555 20.4326 18.1748C20.6833 18.5895 20.8086 19.1068 20.8086 19.7266C20.8086 19.9772 20.7493 20.2461 20.6309 20.5332C20.5169 20.8158 20.3369 21.0801 20.0908 21.3262C19.8493 21.5723 19.5348 21.7751 19.1475 21.9346C18.7601 22.0895 18.2952 22.167 17.7529 22.167H16.6729V21.4014ZM16.6729 22.4404V21.6816H17.7529C18.3864 21.6816 18.9105 21.7568 19.3252 21.9072C19.7399 22.0576 20.0658 22.2581 20.3027 22.5088C20.5443 22.7594 20.7129 23.0352 20.8086 23.3359C20.9089 23.6322 20.959 23.9284 20.959 24.2246C20.959 24.6895 20.8792 25.1019 20.7197 25.4619C20.5648 25.8219 20.3438 26.1273 20.0566 26.3779C19.7741 26.6286 19.4414 26.8177 19.0586 26.9453C18.6758 27.0729 18.2588 27.1367 17.8076 27.1367C17.3747 27.1367 16.9668 27.0752 16.584 26.9521C16.2057 26.8291 15.8708 26.6514 15.5791 26.4189C15.2874 26.182 15.0596 25.8926 14.8955 25.5508C14.7314 25.2044 14.6494 24.8102 14.6494 24.3682H15.9141C15.9141 24.7145 15.9893 25.0176 16.1396 25.2773C16.2946 25.5371 16.5133 25.7399 16.7959 25.8857C17.083 26.027 17.4202 26.0977 17.8076 26.0977C18.195 26.0977 18.5277 26.0316 18.8057 25.8994C19.0882 25.7627 19.3047 25.5576 19.4551 25.2842C19.61 25.0107 19.6875 24.6667 19.6875 24.252C19.6875 23.8372 19.6009 23.4977 19.4277 23.2334C19.2546 22.9645 19.0085 22.7663 18.6895 22.6387C18.375 22.5065 18.0036 22.4404 17.5752 22.4404H16.6729Z" fill="#4770FF"/>
</svg>
