<svg width="36" height="36" viewBox="0 0 36 36" fill="none" xmlns="http://www.w3.org/2000/svg">
<path d="M33.0001 7.64019C31.6601 4.89019 27.8001 2.64019 23.3101 3.95019C21.1646 4.56993 19.2926 5.89898 18.0001 7.72019C16.7076 5.89898 14.8357 4.56993 12.6901 3.95019C8.19011 2.66019 4.34011 4.89019 3.00011 7.64019C1.12011 11.4902 1.90011 15.8202 5.32011 20.5102C8.00011 24.1802 11.8301 27.9002 17.3901 32.2202C17.5658 32.3572 17.7823 32.4317 18.0051 32.4317C18.2279 32.4317 18.4444 32.3572 18.6201 32.2202C24.1701 27.9102 28.0101 24.2202 30.6901 20.5102C34.1001 15.8202 34.8801 11.4902 33.0001 7.64019Z" fill="#FF4A4A"/>
</svg>
