<svg width="15" height="15" viewBox="0 0 15 15" fill="none" xmlns="http://www.w3.org/2000/svg">
<path d="M6.79235 10.9428L4.04991 7.75727C4.03409 7.7389 4.02154 7.71706 4.01297 7.69301C4.00441 7.66896 4 7.64317 4 7.61712C4 7.59108 4.00441 7.56528 4.01297 7.54123C4.02154 7.51718 4.03409 7.49535 4.04991 7.47698L4.74225 6.66756C4.8084 6.5903 4.91533 6.5903 4.98149 6.66756L6.78696 8.76343C6.85312 8.84069 6.96081 8.83979 7.02697 8.76253L11.0164 4.05873C11.0826 3.98057 11.1902 3.98057 11.2572 4.05783L11.9503 4.86725C12.0164 4.94451 12.0164 5.06938 11.9511 5.14664L7.60469 10.2682L7.60546 10.2691L7.03236 10.9419C6.9662 11.0192 6.8585 11.0192 6.79235 10.9428Z" fill="#4770FF" stroke="#4770FF" stroke-width="1.5" stroke-miterlimit="10"/>
<rect x="0.5" y="0.5" width="14" height="14" rx="4.5" stroke="#4770FF"/>
</svg>
